<svg viewBox="0 0 200 200" xmlns="http://www.w3.org/2000/svg" preserveAspectRatio="xMidYMid meet">
  <defs>
    <!-- Flat Aurora Gradient -->
    <linearGradient id="auroraFlat" x1="0%" y1="0%" x2="100%" y2="100%">
      <stop offset="0%" style="stop-color:#00D9A8;stop-opacity:1" />
      <stop offset="33%" style="stop-color:#00B8FF;stop-opacity:1" />
      <stop offset="66%" style="stop-color:#6C63FF;stop-opacity:1" />
      <stop offset="100%" style="stop-color:#FF0099;stop-opacity:1" />
    </linearGradient>

    <!-- Background Gradient (adaptive) -->
    <linearGradient id="bgFlat" x1="0%" y1="0%" x2="0%" y2="100%">
      <stop offset="0%" style="stop-color:#1a2f4f;stop-opacity:1" />
      <stop offset="100%" style="stop-color:#0d1929;stop-opacity:1" />
    </linearGradient>
  </defs>

  <!-- Adaptive Background (circle/square friendly) -->
  <rect x="0" y="0" width="200" height="200" rx="50" ry="50" fill="url(#bgFlat)" />

  <!-- Large Letter A -->
  <g>
    <path d="M 60 145 L 88 50"
          stroke="#FFFFFF"
          stroke-width="18"
          fill="none"
          stroke-linecap="round"
          stroke-linejoin="round"/>
    <path d="M 112 50 L 140 145"
          stroke="#FFFFFF"
          stroke-width="18"
          fill="none"
          stroke-linecap="round"
          stroke-linejoin="round"/>
    <path d="M 74 105 L 126 105"
          stroke="#FFFFFF"
          stroke-width="16"
          fill="none"
          stroke-linecap="round"/>
  </g>

  <!-- Aurora Arc -->
  <path d="M 55 150 Q 100 40, 145 150"
        stroke="url(#auroraFlat)"
        stroke-width="22"
        fill="none"
        stroke-linecap="round"
        opacity="0.85"/>

  <!-- Particles -->
  <circle cx="70" cy="115" r="4" fill="#00D9A8" opacity="0.8"/>
  <circle cx="100" cy="60" r="5" fill="#6C63FF" opacity="0.9"/>
  <circle cx="130" cy="115" r="4" fill="#FF0099" opacity="0.8"/>

  <!-- Small accent dots -->
  <circle cx="80" cy="85" r="2.5" fill="#00B8FF" opacity="0.7"/>
  <circle cx="120" cy="85" r="2.5" fill="#FF0099" opacity="0.7"/>

  <!-- Weather Icon -->
  <g transform="translate(100, 167)">
    <circle cx="0" cy="0" r="10" fill="#FFD93D"/>
    <g stroke="#FFD93D" stroke-width="3" stroke-linecap="round">
      <line x1="0" y1="-16" x2="0" y2="-19"/>
      <line x1="16" y1="0" x2="19" y2="0"/>
      <line x1="0" y1="16" x2="0" y2="19"/>
      <line x1="-16" y1="0" x2="-19" y2="0"/>
      <line x1="11" y1="-11" x2="13" y2="-13"/>
      <line x1="11" y1="11" x2="13" y2="13"/>
      <line x1="-11" y1="-11" x2="-13" y2="-13"/>
      <line x1="-11" y1="11" x2="-13" y2="13"/>
    </g>
    <ellipse cx="10" cy="3" rx="16" ry="10" fill="#FFFFFF"/>
    <ellipse cx="0" cy="4" rx="13" ry="9" fill="#FFFFFF"/>
    <ellipse cx="18" cy="5" rx="11" ry="8" fill="#FFFFFF"/>
  </g>

  <!-- Corner Accents -->
  <circle cx="45" cy="70" r="3" fill="#00D9A8" opacity="0.6"/>
  <circle cx="155" cy="75" r="3" fill="#FF0099" opacity="0.6"/>
  <circle cx="50" cy="150" r="2" fill="#6C63FF" opacity="0.5"/>
  <circle cx="150" cy="150" r="2" fill="#00B8FF" opacity="0.5"/>
</svg>